<mxfile host="app.diagrams.net" modified="2023-05-10T17:18:04.871Z" agent="Mozilla/5.0 (Windows NT 10.0; Win64; x64) AppleWebKit/537.36 (KHTML, like Gecko) Chrome/112.0.0.0 Safari/537.36" etag="5fCUUFVNk-KItxOJs7-o" version="21.2.9" type="google">
  <diagram id="xrxMtvPM4jD022jB3djA" name="ER модель">
    <mxGraphModel grid="1" page="1" gridSize="10" guides="1" tooltips="1" connect="1" arrows="1" fold="1" pageScale="1" pageWidth="827" pageHeight="1169" math="0" shadow="0">
      <root>
        <mxCell id="0" />
        <mxCell id="1" parent="0" />
        <mxCell id="iiYwfUWWMAuivROCwT6N-1" style="edgeStyle=orthogonalEdgeStyle;rounded=0;orthogonalLoop=1;jettySize=auto;html=1;entryX=0;entryY=0.5;entryDx=0;entryDy=0;fontSize=11;startArrow=ERmandOne;startFill=0;endArrow=ERzeroToMany;endFill=0;exitX=1;exitY=0.144;exitDx=0;exitDy=0;exitPerimeter=0;" edge="1" parent="1" source="iiYwfUWWMAuivROCwT6N-3" target="iiYwfUWWMAuivROCwT6N-5">
          <mxGeometry relative="1" as="geometry">
            <Array as="points">
              <mxPoint x="320" y="84" />
              <mxPoint x="320" y="135" />
            </Array>
          </mxGeometry>
        </mxCell>
        <mxCell id="iiYwfUWWMAuivROCwT6N-2" value="Клиника" style="swimlane;childLayout=stackLayout;horizontal=1;startSize=30;horizontalStack=0;rounded=1;fontSize=14;fontStyle=0;strokeWidth=2;resizeParent=0;resizeLast=1;shadow=0;dashed=0;align=center;" vertex="1" parent="1">
          <mxGeometry x="60" y="40" width="160" height="130" as="geometry" />
        </mxCell>
        <mxCell id="iiYwfUWWMAuivROCwT6N-3" value="*Номер клиники&#xa;Индекс&#xa;Город&#xa;Улица&#xa;Дом&#xa;Номер телефона" style="align=left;strokeColor=none;fillColor=none;spacingLeft=4;fontSize=12;verticalAlign=top;resizable=0;rotatable=0;part=1;" vertex="1" parent="iiYwfUWWMAuivROCwT6N-2">
          <mxGeometry y="30" width="160" height="100" as="geometry" />
        </mxCell>
        <mxCell id="iiYwfUWWMAuivROCwT6N-4" value="Врач" style="swimlane;childLayout=stackLayout;horizontal=1;startSize=30;horizontalStack=0;rounded=1;fontSize=14;fontStyle=0;strokeWidth=2;resizeParent=0;resizeLast=1;shadow=0;dashed=0;align=center;" vertex="1" parent="1">
          <mxGeometry x="340" y="50" width="160" height="140" as="geometry" />
        </mxCell>
        <mxCell id="iiYwfUWWMAuivROCwT6N-5" value="*Табельный номер&#xa;Фамилия&#xa;Имя&#xa;Отчество &#xa;Стаж работы&#xa;Образование&#xa;Специализация" style="align=left;strokeColor=none;fillColor=none;spacingLeft=4;fontSize=12;verticalAlign=top;resizable=0;rotatable=0;part=1;" vertex="1" parent="iiYwfUWWMAuivROCwT6N-4">
          <mxGeometry y="30" width="160" height="110" as="geometry" />
        </mxCell>
        <mxCell id="iiYwfUWWMAuivROCwT6N-6" value="Пациент" style="swimlane;childLayout=stackLayout;horizontal=1;startSize=30;horizontalStack=0;rounded=1;fontSize=14;fontStyle=0;strokeWidth=2;resizeParent=0;resizeLast=1;shadow=0;dashed=0;align=center;" vertex="1" parent="1">
          <mxGeometry x="930" y="50" width="160" height="170" as="geometry" />
        </mxCell>
        <mxCell id="iiYwfUWWMAuivROCwT6N-7" value="*Номер карты&#xa;Фамилия&#xa;Имя &#xa;Отчество&#xa;Дата рождения&#xa;Номер телефона&#xa;Серия и номер паспорта&#xa;Страховой полис&#xa;Электронная почта" style="align=left;strokeColor=none;fillColor=none;spacingLeft=4;fontSize=12;verticalAlign=top;resizable=0;rotatable=0;part=1;" vertex="1" parent="iiYwfUWWMAuivROCwT6N-6">
          <mxGeometry y="30" width="160" height="140" as="geometry" />
        </mxCell>
        <mxCell id="iiYwfUWWMAuivROCwT6N-8" value="Запись" style="swimlane;childLayout=stackLayout;horizontal=1;startSize=30;horizontalStack=0;rounded=1;fontSize=14;fontStyle=0;strokeWidth=2;resizeParent=0;resizeLast=1;shadow=0;dashed=0;align=center;" vertex="1" parent="1">
          <mxGeometry x="640" y="50" width="160" height="100" as="geometry" />
        </mxCell>
        <mxCell id="iiYwfUWWMAuivROCwT6N-9" value="*Номер&#xa;Дата&#xa;Время&#xa;Номер кабинет" style="align=left;strokeColor=none;fillColor=none;spacingLeft=4;fontSize=12;verticalAlign=top;resizable=0;rotatable=0;part=1;" vertex="1" parent="iiYwfUWWMAuivROCwT6N-8">
          <mxGeometry y="30" width="160" height="70" as="geometry" />
        </mxCell>
        <mxCell id="iiYwfUWWMAuivROCwT6N-10" style="edgeStyle=orthogonalEdgeStyle;rounded=0;orthogonalLoop=1;jettySize=auto;html=1;entryX=1.001;entryY=0.205;entryDx=0;entryDy=0;fontSize=11;startArrow=ERmandOne;startFill=0;endArrow=ERzeroToMany;endFill=0;exitX=-0.008;exitY=0.289;exitDx=0;exitDy=0;entryPerimeter=0;exitPerimeter=0;" edge="1" parent="1" source="iiYwfUWWMAuivROCwT6N-7" target="iiYwfUWWMAuivROCwT6N-9">
          <mxGeometry relative="1" as="geometry">
            <Array as="points">
              <mxPoint x="865" y="121" />
              <mxPoint x="865" y="94" />
            </Array>
          </mxGeometry>
        </mxCell>
        <mxCell id="iiYwfUWWMAuivROCwT6N-11" style="edgeStyle=orthogonalEdgeStyle;rounded=0;orthogonalLoop=1;jettySize=auto;html=1;entryX=0;entryY=0.25;entryDx=0;entryDy=0;fontSize=11;startArrow=ERmandOne;startFill=0;endArrow=ERzeroToMany;endFill=0;" edge="1" parent="1" target="iiYwfUWWMAuivROCwT6N-9">
          <mxGeometry relative="1" as="geometry">
            <mxPoint x="500" y="90" as="sourcePoint" />
          </mxGeometry>
        </mxCell>
        <mxCell id="iiYwfUWWMAuivROCwT6N-12" value="&lt;font style=&quot;font-size: 12px;&quot;&gt;Работает&lt;/font&gt;" style="text;html=1;strokeColor=none;fillColor=none;align=center;verticalAlign=middle;whiteSpace=wrap;rounded=0;fontSize=20;" vertex="1" parent="1">
          <mxGeometry x="250" y="50" width="60" height="30" as="geometry" />
        </mxCell>
        <mxCell id="iiYwfUWWMAuivROCwT6N-13" value="&lt;font style=&quot;font-size: 12px;&quot;&gt;Принимает&lt;/font&gt;" style="text;html=1;strokeColor=none;fillColor=none;align=center;verticalAlign=middle;whiteSpace=wrap;rounded=0;fontSize=20;" vertex="1" parent="1">
          <mxGeometry x="540" y="60" width="60" height="30" as="geometry" />
        </mxCell>
        <mxCell id="iiYwfUWWMAuivROCwT6N-14" value="&lt;font style=&quot;font-size: 12px;&quot;&gt;Приходит&lt;/font&gt;" style="text;html=1;strokeColor=none;fillColor=none;align=center;verticalAlign=middle;whiteSpace=wrap;rounded=0;fontSize=20;" vertex="1" parent="1">
          <mxGeometry x="827" y="60" width="60" height="30" as="geometry" />
        </mxCell>
        <mxCell id="fEW8WUijyXGq_nq6pDT6-1" value="Расписание процедурного кабинета" style="swimlane;childLayout=stackLayout;horizontal=1;startSize=30;horizontalStack=0;rounded=1;fontSize=9;fontStyle=0;strokeWidth=2;resizeParent=0;resizeLast=1;shadow=0;dashed=0;align=center;" vertex="1" parent="1">
          <mxGeometry x="334" y="260" width="160" height="130" as="geometry" />
        </mxCell>
        <mxCell id="fEW8WUijyXGq_nq6pDT6-2" value="*День недели&#xa;Время начала работы&#xa;Время окончания работы" style="align=left;strokeColor=none;fillColor=none;spacingLeft=4;fontSize=12;verticalAlign=top;resizable=0;rotatable=0;part=1;" vertex="1" parent="fEW8WUijyXGq_nq6pDT6-1">
          <mxGeometry y="30" width="160" height="100" as="geometry" />
        </mxCell>
        <mxCell id="fEW8WUijyXGq_nq6pDT6-5" style="edgeStyle=orthogonalEdgeStyle;rounded=0;orthogonalLoop=1;jettySize=auto;html=1;fontSize=11;startArrow=ERmandOne;startFill=0;endArrow=ERzeroToMany;endFill=0;exitX=1;exitY=0.5;exitDx=0;exitDy=0;" edge="1" parent="1" source="iiYwfUWWMAuivROCwT6N-3" target="fEW8WUijyXGq_nq6pDT6-2">
          <mxGeometry relative="1" as="geometry">
            <mxPoint x="260" y="150" as="sourcePoint" />
            <mxPoint x="350" y="118" as="targetPoint" />
            <Array as="points">
              <mxPoint x="287" y="120" />
              <mxPoint x="287" y="320" />
            </Array>
          </mxGeometry>
        </mxCell>
        <mxCell id="fEW8WUijyXGq_nq6pDT6-7" value="&lt;font style=&quot;font-size: 12px;&quot;&gt;Имеет&lt;/font&gt;" style="text;html=1;strokeColor=none;fillColor=none;align=center;verticalAlign=middle;whiteSpace=wrap;rounded=0;fontSize=20;" vertex="1" parent="1">
          <mxGeometry x="220" y="240" width="60" height="30" as="geometry" />
        </mxCell>
        <mxCell id="fEW8WUijyXGq_nq6pDT6-8" value="Анализ" style="swimlane;childLayout=stackLayout;horizontal=1;startSize=30;horizontalStack=0;rounded=1;fontSize=14;fontStyle=0;strokeWidth=2;resizeParent=0;resizeLast=1;shadow=0;dashed=0;align=center;" vertex="1" parent="1">
          <mxGeometry x="1230" y="50" width="160" height="120" as="geometry" />
        </mxCell>
        <mxCell id="fEW8WUijyXGq_nq6pDT6-9" value="*Номер анализа&#xa;Дата сдачи&#xa;Время сдачи&#xa;Статус&#xa;Результат PDF" style="align=left;strokeColor=none;fillColor=none;spacingLeft=4;fontSize=12;verticalAlign=top;resizable=0;rotatable=0;part=1;" vertex="1" parent="fEW8WUijyXGq_nq6pDT6-8">
          <mxGeometry y="30" width="160" height="90" as="geometry" />
        </mxCell>
        <mxCell id="fEW8WUijyXGq_nq6pDT6-13" value="&lt;font style=&quot;font-size: 12px;&quot;&gt;Сдает&lt;/font&gt;" style="text;html=1;strokeColor=none;fillColor=none;align=center;verticalAlign=middle;whiteSpace=wrap;rounded=0;fontSize=20;" vertex="1" parent="1">
          <mxGeometry x="1120" y="90" width="60" height="30" as="geometry" />
        </mxCell>
        <mxCell id="fEW8WUijyXGq_nq6pDT6-12" style="edgeStyle=orthogonalEdgeStyle;rounded=0;orthogonalLoop=1;jettySize=auto;html=1;fontSize=11;startArrow=ERmandOne;startFill=0;endArrow=ERzeroToMany;endFill=0;entryX=0;entryY=0.5;entryDx=0;entryDy=0;exitX=1;exitY=0.5;exitDx=0;exitDy=0;" edge="1" parent="1" source="iiYwfUWWMAuivROCwT6N-7" target="fEW8WUijyXGq_nq6pDT6-9">
          <mxGeometry relative="1" as="geometry">
            <mxPoint x="1160" y="70" as="sourcePoint" />
            <mxPoint x="1080" y="272" as="targetPoint" />
            <Array as="points" />
          </mxGeometry>
        </mxCell>
      </root>
    </mxGraphModel>
  </diagram>
</mxfile>
